<?xml version="1.0" standalone="no"?><!DOCTYPE svg PUBLIC "-//W3C//DTD SVG 1.1//EN" "http://www.w3.org/Graphics/SVG/1.1/DTD/svg11.dtd"><svg t="1776222356102" class="icon" viewBox="0 0 1024 1024" version="1.1" xmlns="http://www.w3.org/2000/svg" p-id="16610" xmlns:xlink="http://www.w3.org/1999/xlink" width="200" height="200"><path d="M34.499765 280.621176a79.164235 69.571765 90 1 0 139.143529 0 79.164235 69.571765 90 1 0-139.143529 0Z" fill="#255299" p-id="16611"></path><path d="M54.573176 280.621176a79.164235 69.571765 90 1 0 139.14353 0 79.164235 69.571765 90 1 0-139.14353 0Z" fill="#4269C4" p-id="16612"></path><path d="M431.028706 935.800471a60.777412 52.449882 90 1 0 104.899765 0 60.777412 52.449882 90 1 0-104.899765 0Z" fill="#3A3A3A" p-id="16613"></path><path d="M249.268706 935.800471a60.777412 52.449882 90 1 0 104.899765 0 60.777412 52.449882 90 1 0-104.899765 0Z" fill="#3A3A3A" p-id="16614"></path><path d="M269.492706 935.800471a37.345882 32.225882 90 1 0 64.451765 0 37.345882 32.225882 90 1 0-64.451765 0Z" fill="#2D2D2D" p-id="16615"></path><path d="M451.252706 935.800471a37.345882 32.225882 90 1 0 64.451765 0 37.345882 32.225882 90 1 0-64.451765 0Z" fill="#2D2D2D" p-id="16616"></path><path d="M594.778353 555.655529c11.745882 424.583529-206.471529 397.793882-206.471529 397.793883S170.089412 980.239059 181.850353 555.670588c0 0-6.008471-119.506824 206.456471-119.536941 212.028235-0.030118 206.471529 119.536941 206.471529 119.536941z" fill="#D1DAFE" p-id="16617"></path><path d="M388.321882 953.554824s-127.232 15.540706-182.076235-166.324706c38.851765 26.202353 84.826353 41.306353 133.888 41.306353 136.342588 0 247.582118-115.681882 254.915765-261.12 7.544471 412.340706-206.727529 386.138353-206.72753 386.138353z" fill="#8A9BEA" p-id="16618"></path><path d="M668.280471 269.071059c0 119.461647-127.638588 216.289882-285.093647 216.289882S98.108235 388.532706 98.108235 269.071059 225.731765 27.407059 383.186824 27.407059s285.093647 122.187294 285.093647 241.648941z" fill="#D1DAFE" p-id="16619"></path><path d="M668.220235 269.161412c0 119.371294-127.563294 216.184471-285.078588 216.18447-114.447059 0-213.308235-51.275294-258.424471-125.123764 53.940706 30.765176 120.395294 48.609882 192.376471 48.609882 171.068235 0 311.747765-101.737412 326.731294-231.544471 15.781647 29.319529 24.395294 60.702118 24.395294 91.873883z" fill="#8A9BEA" p-id="16620"></path><path d="M548.623059 249.389176v48.64c0 27.813647-22.588235 50.401882-50.386824 50.401883H228.442353c-27.361882 0-49.950118-22.588235-49.950118-50.401883v-48.64c0-27.798588 22.588235-50.401882 49.950118-50.401882h269.778823c27.798588 0 50.386824 22.588235 50.386824 50.401882z" fill="#8A9BEA" p-id="16621"></path><path d="M606.057412 296.553412a79.164235 69.571765 90 1 0 139.143529 0 79.164235 69.571765 90 1 0-139.143529 0Z" fill="#4269C4" p-id="16622"></path><path d="M530.657882 260.924235v48.64c0 27.813647-22.588235 50.401882-50.401882 50.401883H210.492235c-27.376941 0-49.965176-22.588235-49.965176-50.401883v-48.64c0-27.798588 22.588235-50.386824 49.965176-50.386823h269.763765c27.798588 0 50.401882 22.588235 50.401882 50.386823z" fill="#4269C4" p-id="16623"></path><path d="M245.940706 281.720471m-22.392471 0a22.392471 22.392471 0 1 0 44.784941 0 22.392471 22.392471 0 1 0-44.784941 0Z" fill="#3A3A3A" p-id="16624"></path><path d="M430.576941 281.720471m-22.39247 0a22.392471 22.392471 0 1 0 44.784941 0 22.392471 22.392471 0 1 0-44.784941 0Z" fill="#3A3A3A" p-id="16625"></path><path d="M626.130824 296.553412a79.164235 69.571765 90 1 0 139.143529 0 79.164235 69.571765 90 1 0-139.143529 0Z" fill="#255299" p-id="16626"></path><path d="M745.592471 695.085176c-0.662588 13.327059-2.665412 26.202353-7.318589 39.30353-4.894118 12.890353-14.215529 26.654118-25.103058 35.312941-11.098353 8.884706-22.422588 14.652235-33.295059 19.320471-11.113412 4.879059-22.437647 8.643765-34.198589 11.098353a199.514353 199.514353 0 0 1-80.158117 2.439529 176.534588 176.534588 0 0 1-55.296-19.772235 272.865882 272.865882 0 0 0 61.741176-0.210824 241.392941 241.392941 0 0 0 63.503059-15.555765c18.206118-7.755294 38.189176-17.317647 49.739294-28.852705 5.767529-5.767529 9.095529-11.098353 11.760941-18.883765 2.665412-7.529412 3.990588-16.865882 4.442353-25.524706 1.114353-35.990588-16.429176-73.728-44.423529-101.496471-17.528471-17.317647-39.062588-31.518118-62.599529-43.941647a78.471529 78.471529 0 0 0-4.216471-18.221176c31.292235 4.668235 61.952 15.992471 89.027765 35.764706 39.092706 28.626824 67.960471 76.152471 66.409411 129.219764z" fill="#4269C4" p-id="16627"></path><path d="M388.306824 496.128s-136.372706-156.325647-192.783059-55.883294c-40.914824 72.854588 21.187765 115.395765 27.708235 119.476706 6.505412 4.065882 41.803294 19.546353 55.928471 21.172706 14.110118 1.626353 87.431529-13.025882 82.537411-32.587294s26.608941-52.178824 26.608942-52.178824z" fill="#FBAD3E" p-id="16628"></path><path d="M388.306824 496.128s136.372706-156.325647 192.798117-55.883294c40.914824 72.854588-21.187765 115.395765-27.708235 119.476706-6.505412 4.065882-41.803294 19.546353-55.928471 21.172706-14.125176 1.626353-87.431529-13.025882-82.55247-32.587294 4.894118-19.546353-26.608941-52.178824-26.608941-52.178824z" fill="#FBAD3E" p-id="16629"></path><path d="M388.306824 795.075765l201.577411-68.472471a24.937412 24.937412 0 0 0 16.911059-23.612235V456.704a24.937412 24.937412 0 0 0-32.948706-23.597176l-185.524706 63.021176v298.947765z" fill="#617F4D" p-id="16630"></path><path d="M388.306824 795.075765L186.729412 726.603294a24.937412 24.937412 0 0 1-16.911059-23.612235V456.704a24.937412 24.937412 0 0 1 32.963765-23.597176l185.524706 63.021176v298.947765z" fill="#AEC46E" p-id="16631"></path><path d="M476.506353 755.787294c9.938824-9.185882 23.913412-11.369412 37.436235-6.972235 13.101176 4.035765 27.798588 18.552471 27.858824 38.686117 0 20.133647-14.712471 34.695529-27.813647 38.746353-13.552941 4.427294-27.557647 2.198588-37.496471-7.03247 9.697882-9.366588 15.600941-16.323765 18.763294-22.437647 3.463529-6.204235 2.153412-9.276235 2.153412-9.276236s1.355294-3.132235-2.108235-9.321411c-3.177412-6.159059-9.110588-13.071059-18.793412-22.392471zM206.832941 733.906824c-33.731765-9.637647-65.505882-8.583529-101.647059-19.425883-17.769412-5.421176-37.948235-16.112941-50.748235-37.647059-12.348235-21.985882-9.788235-47.284706-3.764706-65.807058 6.625882-19.425882 15.811765-35.087059 26.50353-50.145883 11.143529-14.757647 23.943529-29.063529 39.755294-39.755294 15.510588-11.294118 34.032941-19.124706 52.85647-21.835294v23.943529c-11.595294 6.776471-21.684706 15.058824-30.569411 24.244706-10.089412 11.294118-19.576471 23.04-27.105883 36.592941-7.529412 13.251765-15.209412 27.557647-19.124706 40.357647-4.367059 13.251765-4.818824 24.545882-1.204706 33.129412 3.011765 9.035294 13.703529 17.317647 26.804706 24.997647 15.058824 8.131765 33.731765 15.209412 51.501177 24.696471 12.950588 6.927059 25.6 15.058824 35.84 25.750588l0.903529 0.90353z" fill="#4269C4" p-id="16632"></path><path d="M221.921882 773.270588c-12.709647 4.623059-26.443294 1.28-37.255529-7.981176-10.541176-8.749176-18.522353-27.813647-10.842353-46.426353 7.740235-18.597647 26.940235-26.368 40.583529-25.057883 14.200471 1.114353 26.277647 8.553412 31.894589 20.886589-12.544 4.939294-20.660706 9.080471-25.946353 13.522823-5.571765 4.382118-5.541647 7.725176-5.541647 7.725177s-2.454588 2.364235-1.626353 9.411764c0.557176 6.912 3.358118 15.570824 8.734117 27.904z" fill="#4269C4" p-id="16633"></path><path d="M989.515294 464.173176c0 60.310588-59.241412 109.251765-132.352 109.251765-21.022118 0-40.854588-4.065882-58.428235-11.218823a7.077647 7.077647 0 0 0-6.4 0.557176 130.017882 130.017882 0 0 1-42.104471 16.670118c-6.927059 1.415529-11.504941-7.258353-6.369882-12.107294 6.836706-6.475294 12.348235-13.327059 16.775529-20.058353a7.258353 7.258353 0 0 0-1.234823-9.456941c-21.519059-19.380706-34.665412-45.251765-34.665412-73.637648 0-60.400941 59.226353-109.342118 132.427294-109.342117 73.110588 0 132.336941 48.941176 132.336941 109.342117z" fill="#FBAD3E" p-id="16634"></path><path d="M989.470118 464.173176c0 60.310588-59.226353 109.266824-132.336942 109.266824-20.992 0-40.824471-4.065882-58.413176-11.264a7.047529 7.047529 0 0 0-6.4 0.632471 130.213647 130.213647 0 0 1-42.089412 16.579764c-6.942118 1.445647-11.550118-7.213176-6.4-12.077176 6.851765-6.490353 12.348235-13.342118 16.760471-20.028235a7.198118 7.198118 0 0 0-1.174588-9.456942c-13.974588-12.619294-24.425412-27.934118-30.012236-44.875294 27.407059 8.463059 58.578824 13.251765 91.587765 13.251765 70.324706 0 132.065882-21.549176 167.664941-54.106353 0.542118 3.975529 0.813176 8.026353 0.813177 12.077176z" fill="#FA990E" p-id="16635"></path><path d="M752.007529 451.719529c21.232941-34.273882 63.427765-54.784 105.110589-54.663529 41.682824-0.165647 83.922824 20.359529 105.110588 54.663529-17.076706-10.390588-34.002824-18.597647-51.561412-24.094117a181.790118 181.790118 0 0 0-53.549176-8.161883 181.112471 181.112471 0 0 0-53.549177 8.131765c-17.573647 5.496471-34.499765 13.703529-51.561412 24.124235zM790.994824 490.706824c11.023059-24.018824 38.866824-38.701176 66.123294-38.550589 27.256471-0.180706 55.130353 14.501647 66.108235 38.550589-11.956706-5.270588-22.738824-9.456941-33.686588-12.092236a135.439059 135.439059 0 0 0-32.421647-4.035764c-10.782118 0-21.564235 1.310118-32.421647 4.020705-10.962824 2.605176-21.744941 6.821647-33.701647 12.107295zM822.000941 531.952941c5.857882-12.769882 20.630588-20.555294 35.117177-20.48 14.471529-0.105412 29.289412 7.695059 35.117176 20.48a105.652706 105.652706 0 0 0-17.904941-6.430117 71.936 71.936 0 0 0-17.212235-2.153412c-5.722353 0-11.444706 0.707765-17.227294 2.138353-5.812706 1.385412-11.535059 3.614118-17.889883 6.445176z" fill="#FFFFFF" p-id="16636"></path></svg>